#!OML:ASF E:/inclinewalkrobotboard/Project1/Captureday1/Session1/subject1.ASF
:FULLY-SPECIFIED
:DEGREES
201
root 0 0 0 -1.483121296653958 -1.4210112919807276 -3.9838307155486556
lowerback 19.45538195189068 3.0317120603429046 0.2170084048946599
upperback 2.3033848792207636 4.093881153586919 -0.5322314499047867
thorax -8.40467283894273 1.9734369505308798 -1.3464421057484026
lowerneck -8.738359474765813 -5.981356580646765 -1.6567251047908609
upperneck -0.9706558934036451 -8.63215809042998 5.983261988978551
head 1.3471053355961073 -3.9539367245674724 1.6068019459765255
rclavicle 2.7898046338392177E-15 -1.3528896171989926E-15
rhumerus 19.065831541806958 -10.475312744471896 -47.141480607470406
rradius 119.97416352048526
rwrist 0.774978925118095
rhand -19.589484034450116 -23.970578745547087
rfingers 7.1250199999999495
rthumb 6.7579081330031 -53.822999965083994
lclavicle -2.744109964856408E-16 -1.1445791838916E-16
lhumerus -45.81579445260391 -6.895359188007634 81.5332372186898
lradius 61.83914121687695
lwrist 10.404368527627016
lhand -14.220465028537525 -21.158592750205962
lfingers 7.1250199999998864
lthumb 11.836747311861496 8.583150303661883
rfemur -7.340809366672409 9.104376749453621 35.13556977415324
rtibia 28.0549577906095
rfoot -18.66711082068211 -8.410679490433466
rtoes 7.531660721081374
lfemur -23.549210628967746 2.340114016424375 -15.974004652264147
ltibia 54.41106421445957
lfoot -1.3676303320385692 -6.824048936709654
ltoes 3.125730442032186
202
root 0 0 0 -1.4980777973178876 -1.4486688081840966 -3.9765489664853177
lowerback 19.58398510529303 3.0272995918634544 0.20117529271959955
upperback 2.3161764549920068 4.087306718660732 -0.5347457105587696
thorax -8.465166982871796 1.9697888182742949 -1.341278285744239
lowerneck -8.726426508461179 -5.977972502999322 -1.620521163992785
upperneck -1.115695625345479 -8.622532742469708 5.938932406472919
head 1.3051698026644631 -3.9520516476354866 1.588705585154163
rclavicle 1.4048208758182995E-15 -1.205267792372191E-15
rhumerus 27.84452014983861 -8.478652264270503 -39.165164477700635
rradius 132.93402472667867
rwrist -8.760913064433783
rhand -19.680336255714444 -26.41341670658179
rfingers 7.125019999999956
rthumb 6.674131786335092 -56.23633073244312
lclavicle -5.487200695644597E-16 -6.409664080413353E-17
lhumerus -46.64575269267442 -6.4911341635477955 80.60402846851488
lradius 61.86435563149139
lwrist 10.668456047759625
lhand -14.432394330671233 -20.26457695949651
lfingers 7.125019999999872
lthumb 11.63282285773223 9.486086553849262
rfemur -7.042977964284883 8.980775648781194 35.107091974729705
rtibia 28.623732051082662
rfoot -18.76388088938166 -8.423274578291942
rtoes 7.204083738131056
lfemur -23.790752929577767 2.082272821164725 -16.467303083680065
ltibia 52.23494844855924
lfoot -1.3758446485954217 -6.606775592904129
ltoes 5.0044745660823295
203
root 0 0 0 -1.5022718537603623 -1.470100839663917 -3.970705291630552
lowerback 19.71135096441466 3.0173216947901293 0.17237648882033485
upperback 2.3202162581225374 4.073084471846777 -0.5278395134595488
thorax -8.533555939984721 1.962699210992552 -1.3183137554415232
lowerneck -8.693064850593899 -5.971755046172047 -1.5726744298911466
upperneck -1.174542955175868 -8.608638970650066 5.878671468351888
head 1.2922788923367676 -3.9477738588052107 1.563429699490932
rclavicle 4.559203627142406E-16 -7.028293738696232E-16
rhumerus 32.52988926569489 -7.219028896043078 -34.38605528050296
rradius 140.89724654459457
rwrist -15.190198381491333
rhand -19.72391398017011 -28.316049413585105
rfingers 7.125019999999959
rthumb 6.6351648389774365 -58.128472271681275
lclavicle -7.636798728590644E-16 1.1890339847661374E-16
lhumerus -47.07113972784089 -6.255428893667651 80.05691359860327
lradius 61.891517632698196
lwrist 10.809908269423538
lhand -14.56935673815985 -19.84805606048579
lfingers 7.125019999999865
lthumb 11.502908065722947 9.917180065759851
rfemur -7.117334768837161 8.832459615178832 35.01786894553414
rtibia 29.421892092253685
rfoot -18.64421480906766 -8.433017599391771
rtoes 6.930441367755106
lfemur -23.83920459757713 1.81979343414829 -16.95896901228436
ltibia 50.20439399140726
lfoot -1.2944339475554116 -6.484758104464571
ltoes 6.703959661863941
204
root 0 0 0 -1.5195220924588582 -1.9111422453145395 -3.9329834555835785
lowerback 20.61989468660112 2.7442655546518453 -0.27416107759422137
upperback 2.350296800315963 3.6941950400430272 -0.2277080404531895
thorax -9.008202911905267 1.7810185871561344 -0.7197090233516384
lowerneck -7.775021914470358 -5.696170933819689 -0.8199515812429976
upperneck -1.0036263403690082 -8.094277521235632 4.864106871145404
head 1.3292339508053912 -3.7516241989041132 1.1598085398503737
rclavicle -5.308507934882646E-16 8.629451735846978E-16
rhumerus 32.94001918409099 -8.549431822444173 -32.42099447485189
rradius 143.08669953515277
rwrist -18.65055622488257
rhand -19.856268877660472 -30.215571562846637
rfingers 7.12501999999997
rthumb 6.5044287842605915 -60.04409815130983
lclavicle -1.3758871823577456E-15 1.11353478764314E-15
lhumerus -47.243422041667095 -6.1543505503380445 79.7897993968489
lradius 61.89462303597163
lwrist 10.876520529305255
lhand -14.644346613667581 -19.661784196792798
lfingers 7.1250199999998625
lthumb 11.434204068070775 10.117605665174366
rfemur -9.173128279027384 8.35829671259652 34.70929968205799
rtibia 32.757031126624575
rfoot -17.509764162249972 -8.472936029770839
rtoes 6.815437444827942
lfemur -23.165686102593316 1.32062383735204 -18.041620091484713
ltibia 46.973754410970365
lfoot -0.8247392411941128 -6.655808499075985
ltoes 9.467341216106547
205
root 0 0 0 -1.506304166809925 -1.852642269399385 -3.9416051312174396
lowerback 20.626248032824805 2.7359224261419928 -0.3321166978621446
upperback 2.1860148620121795 3.6874103259018316 -0.20105961504498104
thorax -9.191670097645424 1.7781122767673398 -0.6630991781655521
lowerneck -7.933356685125098 -5.740773809198433 -0.8093827585705793
upperneck -0.8135962862159101 -8.157620143787298 4.803508377812715
head 1.441798703325052 -3.7798256471770886 1.129717351566995
rclavicle 1.6885551278315904E-15 2.0844184586776636E-15
rhumerus 32.71242226600077 -9.887906373034301 -32.30484568183652
rradius 142.29312137676382
rwrist -18.640627525193477
rhand -19.970632737886536 -30.584598971632133
rfingers 7.125019999999975
rthumb 6.3993294086943 -60.41574119551214
lclavicle -1.670036929002785E-16 2.1841149340529668E-15
lhumerus -47.21793726594911 -6.195562933809357 79.80342870414984
lradius 61.89666317502699
lwrist 10.869555322239927
lhand -14.633142828147964 -19.62136865165594
lfingers 7.125019999999862
lthumb 11.443928957011451 10.116211050200096
rfemur -8.66645179441464 8.624539180914692 34.82397196857279
rtibia 31.306331223567405
rfoot -17.48777994226988 -8.344074282891981
rtoes 6.910042568005279
lfemur -23.18764350146002 1.4638088963315359 -17.884302022943867
ltibia 47.7265340625313
lfoot -1.0102525767413617 -6.634149667435023
ltoes 8.965471625624993
